<mxfile host="app.diagrams.net" modified="2023-04-29T12:30:34.355Z" agent="Mozilla/5.0 (Windows NT 10.0; Win64; x64) AppleWebKit/537.36 (KHTML, like Gecko) Chrome/112.0.0.0 Safari/537.36" etag="1WEy946PZ2afks1NcUQp" version="21.2.3" type="device">
  <diagram id="ql5Kk59QJ9DEcHVxNvi2" name="Page-1">
    <mxGraphModel dx="712" dy="746" grid="1" gridSize="10" guides="1" tooltips="1" connect="1" arrows="1" fold="1" page="1" pageScale="1" pageWidth="827" pageHeight="1169" math="0" shadow="0">
      <root>
        <mxCell id="0" />
        <mxCell id="1" parent="0" />
        <mxCell id="EnnZCZ1k5EJQhtIXUkQg-1" value="Calendario" style="html=1;dashed=0;whitespace=wrap;shape=partialRectangle;right=0;left=0;" parent="1" vertex="1">
          <mxGeometry x="371" y="90" width="100" height="40" as="geometry" />
        </mxCell>
        <mxCell id="EnnZCZ1k5EJQhtIXUkQg-2" value="Process (1.1)" style="swimlane;fillColor=#E6E6E6;" parent="1" vertex="1">
          <mxGeometry x="98" y="10" width="140" height="110" as="geometry" />
        </mxCell>
        <mxCell id="EnnZCZ1k5EJQhtIXUkQg-3" value="Raccolta &lt;br&gt;informazioni" style="text;html=1;align=center;verticalAlign=middle;resizable=0;points=[];autosize=1;strokeColor=none;fillColor=none;" parent="EnnZCZ1k5EJQhtIXUkQg-2" vertex="1">
          <mxGeometry x="27.5" y="45" width="90" height="40" as="geometry" />
        </mxCell>
        <mxCell id="EnnZCZ1k5EJQhtIXUkQg-4" value="" style="group" parent="1" vertex="1" connectable="0">
          <mxGeometry x="88" y="175" width="150" height="140" as="geometry" />
        </mxCell>
        <mxCell id="EnnZCZ1k5EJQhtIXUkQg-5" value="Titolare/Socio" style="rounded=0;whiteSpace=wrap;html=1;fillColor=none;" parent="EnnZCZ1k5EJQhtIXUkQg-4" vertex="1">
          <mxGeometry width="150" height="140" as="geometry" />
        </mxCell>
        <mxCell id="EnnZCZ1k5EJQhtIXUkQg-6" value="ID" style="text;html=1;strokeColor=none;fillColor=none;align=center;verticalAlign=middle;whiteSpace=wrap;rounded=0;" parent="EnnZCZ1k5EJQhtIXUkQg-4" vertex="1">
          <mxGeometry width="60" height="30" as="geometry" />
        </mxCell>
        <mxCell id="zwUa3I3EudFriRIIw6sZ-1" value="" style="group" parent="1" vertex="1" connectable="0">
          <mxGeometry x="344.25" y="370" width="150" height="140" as="geometry" />
        </mxCell>
        <mxCell id="zwUa3I3EudFriRIIw6sZ-2" value="Dipendente" style="rounded=0;whiteSpace=wrap;html=1;fillColor=none;" parent="zwUa3I3EudFriRIIw6sZ-1" vertex="1">
          <mxGeometry width="150" height="140" as="geometry" />
        </mxCell>
        <mxCell id="zwUa3I3EudFriRIIw6sZ-3" value="ID" style="text;html=1;strokeColor=none;fillColor=none;align=center;verticalAlign=middle;whiteSpace=wrap;rounded=0;" parent="zwUa3I3EudFriRIIw6sZ-1" vertex="1">
          <mxGeometry width="60" height="30" as="geometry" />
        </mxCell>
        <mxCell id="zwUa3I3EudFriRIIw6sZ-4" value="Registro ferie" style="html=1;dashed=0;whitespace=wrap;shape=partialRectangle;right=0;left=0;" parent="1" vertex="1">
          <mxGeometry x="369.25" y="40" width="100" height="40" as="geometry" />
        </mxCell>
        <mxCell id="zwUa3I3EudFriRIIw6sZ-5" value="Registro ritardi/assenze" style="html=1;dashed=0;whitespace=wrap;shape=partialRectangle;right=0;left=0;" parent="1" vertex="1">
          <mxGeometry x="600" y="230" width="130" height="30" as="geometry" />
        </mxCell>
        <mxCell id="zwUa3I3EudFriRIIw6sZ-8" value="" style="endArrow=classic;html=1;rounded=0;exitX=0;exitY=0.5;exitDx=0;exitDy=0;" parent="1" source="zwUa3I3EudFriRIIw6sZ-4" edge="1">
          <mxGeometry relative="1" as="geometry">
            <mxPoint x="368" y="60" as="sourcePoint" />
            <mxPoint x="238" y="60" as="targetPoint" />
          </mxGeometry>
        </mxCell>
        <mxCell id="zwUa3I3EudFriRIIw6sZ-9" value="Giorni ferie dipendenti" style="edgeLabel;resizable=0;html=1;align=center;verticalAlign=middle;" parent="zwUa3I3EudFriRIIw6sZ-8" connectable="0" vertex="1">
          <mxGeometry relative="1" as="geometry" />
        </mxCell>
        <mxCell id="8X3pxFGf8gc7nBoMGhCD-1" value="" style="endArrow=classic;html=1;rounded=0;entryX=0.193;entryY=-0.015;entryDx=0;entryDy=0;entryPerimeter=0;" edge="1" parent="1" target="EnnZCZ1k5EJQhtIXUkQg-5">
          <mxGeometry relative="1" as="geometry">
            <mxPoint x="117" y="120" as="sourcePoint" />
            <mxPoint x="168" y="170" as="targetPoint" />
            <Array as="points" />
          </mxGeometry>
        </mxCell>
        <mxCell id="8X3pxFGf8gc7nBoMGhCD-2" value="Ferie dipendenti" style="edgeLabel;resizable=0;html=1;align=center;verticalAlign=middle;" connectable="0" vertex="1" parent="8X3pxFGf8gc7nBoMGhCD-1">
          <mxGeometry relative="1" as="geometry" />
        </mxCell>
        <mxCell id="8X3pxFGf8gc7nBoMGhCD-4" value="Process (1.3)" style="swimlane;fillColor=#E6E6E6;" vertex="1" parent="1">
          <mxGeometry x="93" y="385" width="140" height="110" as="geometry" />
        </mxCell>
        <mxCell id="8X3pxFGf8gc7nBoMGhCD-5" value="Cambio turno" style="text;html=1;align=center;verticalAlign=middle;resizable=0;points=[];autosize=1;strokeColor=none;fillColor=none;" vertex="1" parent="8X3pxFGf8gc7nBoMGhCD-4">
          <mxGeometry x="22.5" y="50" width="100" height="30" as="geometry" />
        </mxCell>
        <mxCell id="8X3pxFGf8gc7nBoMGhCD-6" value="" style="endArrow=classic;html=1;rounded=0;entryX=1;entryY=0.5;entryDx=0;entryDy=0;exitX=0;exitY=0.5;exitDx=0;exitDy=0;" edge="1" parent="1" source="zwUa3I3EudFriRIIw6sZ-2" target="8X3pxFGf8gc7nBoMGhCD-4">
          <mxGeometry relative="1" as="geometry">
            <mxPoint x="308" y="390" as="sourcePoint" />
            <mxPoint x="308" y="445" as="targetPoint" />
          </mxGeometry>
        </mxCell>
        <mxCell id="8X3pxFGf8gc7nBoMGhCD-7" value="Turno modificato" style="edgeLabel;resizable=0;html=1;align=center;verticalAlign=middle;" connectable="0" vertex="1" parent="8X3pxFGf8gc7nBoMGhCD-6">
          <mxGeometry relative="1" as="geometry" />
        </mxCell>
        <mxCell id="8X3pxFGf8gc7nBoMGhCD-8" value="" style="endArrow=classic;html=1;rounded=0;entryX=0.5;entryY=1;entryDx=0;entryDy=0;exitX=0.5;exitY=0;exitDx=0;exitDy=0;" edge="1" parent="1" source="8X3pxFGf8gc7nBoMGhCD-4" target="EnnZCZ1k5EJQhtIXUkQg-5">
          <mxGeometry relative="1" as="geometry">
            <mxPoint x="238" y="370" as="sourcePoint" />
            <mxPoint x="118" y="370" as="targetPoint" />
          </mxGeometry>
        </mxCell>
        <mxCell id="8X3pxFGf8gc7nBoMGhCD-9" value="Turno modificato" style="edgeLabel;resizable=0;html=1;align=center;verticalAlign=middle;" connectable="0" vertex="1" parent="8X3pxFGf8gc7nBoMGhCD-8">
          <mxGeometry relative="1" as="geometry" />
        </mxCell>
        <mxCell id="8X3pxFGf8gc7nBoMGhCD-10" value="Process (1.2)" style="swimlane;fillColor=#E6E6E6;" vertex="1" parent="1">
          <mxGeometry x="348" y="190" width="142.5" height="110" as="geometry" />
        </mxCell>
        <mxCell id="8X3pxFGf8gc7nBoMGhCD-11" value="Redazione &lt;br&gt;calendario" style="text;html=1;align=center;verticalAlign=middle;resizable=0;points=[];autosize=1;strokeColor=none;fillColor=none;" vertex="1" parent="8X3pxFGf8gc7nBoMGhCD-10">
          <mxGeometry x="33" y="40" width="80" height="40" as="geometry" />
        </mxCell>
        <mxCell id="8X3pxFGf8gc7nBoMGhCD-12" value="" style="endArrow=classic;html=1;rounded=0;" edge="1" parent="1">
          <mxGeometry relative="1" as="geometry">
            <mxPoint x="368" y="100" as="sourcePoint" />
            <mxPoint x="238" y="100" as="targetPoint" />
            <Array as="points">
              <mxPoint x="278" y="100" />
            </Array>
          </mxGeometry>
        </mxCell>
        <mxCell id="8X3pxFGf8gc7nBoMGhCD-13" value="Permessi" style="edgeLabel;resizable=0;html=1;align=center;verticalAlign=middle;" connectable="0" vertex="1" parent="8X3pxFGf8gc7nBoMGhCD-12">
          <mxGeometry relative="1" as="geometry">
            <mxPoint x="-5" as="offset" />
          </mxGeometry>
        </mxCell>
        <mxCell id="8X3pxFGf8gc7nBoMGhCD-15" value="" style="endArrow=classic;html=1;rounded=0;" edge="1" parent="1">
          <mxGeometry relative="1" as="geometry">
            <mxPoint x="478" y="370" as="sourcePoint" />
            <mxPoint x="478" y="300" as="targetPoint" />
          </mxGeometry>
        </mxCell>
        <mxCell id="8X3pxFGf8gc7nBoMGhCD-16" value="Ritardo/Assenza" style="edgeLabel;resizable=0;html=1;align=center;verticalAlign=middle;" connectable="0" vertex="1" parent="8X3pxFGf8gc7nBoMGhCD-15">
          <mxGeometry relative="1" as="geometry">
            <mxPoint x="1" as="offset" />
          </mxGeometry>
        </mxCell>
        <mxCell id="8X3pxFGf8gc7nBoMGhCD-17" value="" style="endArrow=classic;html=1;rounded=0;entryX=0;entryY=0.5;entryDx=0;entryDy=0;exitX=1;exitY=0.75;exitDx=0;exitDy=0;" edge="1" parent="1">
          <mxGeometry relative="1" as="geometry">
            <mxPoint x="490.5000000000001" y="245.5" as="sourcePoint" />
            <mxPoint x="604" y="245" as="targetPoint" />
          </mxGeometry>
        </mxCell>
        <mxCell id="8X3pxFGf8gc7nBoMGhCD-18" value="Ritardo/Assenza" style="edgeLabel;resizable=0;html=1;align=center;verticalAlign=middle;" connectable="0" vertex="1" parent="8X3pxFGf8gc7nBoMGhCD-17">
          <mxGeometry relative="1" as="geometry">
            <mxPoint x="1" as="offset" />
          </mxGeometry>
        </mxCell>
        <mxCell id="8X3pxFGf8gc7nBoMGhCD-19" value="" style="endArrow=classic;html=1;rounded=0;entryX=0.25;entryY=0;entryDx=0;entryDy=0;" edge="1" parent="1">
          <mxGeometry relative="1" as="geometry">
            <mxPoint x="218" y="120" as="sourcePoint" />
            <mxPoint x="218" y="175" as="targetPoint" />
            <Array as="points" />
          </mxGeometry>
        </mxCell>
        <mxCell id="8X3pxFGf8gc7nBoMGhCD-20" value="Permessi dipendenti" style="edgeLabel;resizable=0;html=1;align=center;verticalAlign=middle;" connectable="0" vertex="1" parent="8X3pxFGf8gc7nBoMGhCD-19">
          <mxGeometry relative="1" as="geometry" />
        </mxCell>
        <mxCell id="8X3pxFGf8gc7nBoMGhCD-21" value="" style="endArrow=classic;html=1;rounded=0;exitX=0.5;exitY=0;exitDx=0;exitDy=0;" edge="1" parent="1" source="zwUa3I3EudFriRIIw6sZ-3">
          <mxGeometry relative="1" as="geometry">
            <mxPoint x="372" y="366" as="sourcePoint" />
            <mxPoint x="374" y="300" as="targetPoint" />
          </mxGeometry>
        </mxCell>
        <mxCell id="8X3pxFGf8gc7nBoMGhCD-22" value="Ritardo/uscita&lt;br&gt;comunicati" style="edgeLabel;resizable=0;html=1;align=center;verticalAlign=middle;" connectable="0" vertex="1" parent="8X3pxFGf8gc7nBoMGhCD-21">
          <mxGeometry relative="1" as="geometry">
            <mxPoint x="1" as="offset" />
          </mxGeometry>
        </mxCell>
        <mxCell id="8X3pxFGf8gc7nBoMGhCD-23" value="" style="endArrow=classic;html=1;rounded=0;entryX=1;entryY=0.75;entryDx=0;entryDy=0;" edge="1" parent="1" target="EnnZCZ1k5EJQhtIXUkQg-5">
          <mxGeometry relative="1" as="geometry">
            <mxPoint x="348" y="280" as="sourcePoint" />
            <mxPoint x="278" y="260" as="targetPoint" />
          </mxGeometry>
        </mxCell>
        <mxCell id="8X3pxFGf8gc7nBoMGhCD-24" value="Ritardo/uscita&lt;br style=&quot;border-color: var(--border-color);&quot;&gt;comunicati" style="edgeLabel;resizable=0;html=1;align=center;verticalAlign=middle;" connectable="0" vertex="1" parent="8X3pxFGf8gc7nBoMGhCD-23">
          <mxGeometry relative="1" as="geometry">
            <mxPoint x="1" as="offset" />
          </mxGeometry>
        </mxCell>
        <mxCell id="8X3pxFGf8gc7nBoMGhCD-25" value="" style="endArrow=classic;html=1;rounded=0;entryX=1;entryY=0.75;entryDx=0;entryDy=0;" edge="1" parent="1">
          <mxGeometry relative="1" as="geometry">
            <mxPoint x="238" y="249.66" as="sourcePoint" />
            <mxPoint x="348" y="249.66" as="targetPoint" />
          </mxGeometry>
        </mxCell>
        <mxCell id="8X3pxFGf8gc7nBoMGhCD-26" value="Ritardo/uscita" style="edgeLabel;resizable=0;html=1;align=center;verticalAlign=middle;" connectable="0" vertex="1" parent="8X3pxFGf8gc7nBoMGhCD-25">
          <mxGeometry relative="1" as="geometry">
            <mxPoint x="1" as="offset" />
          </mxGeometry>
        </mxCell>
        <mxCell id="8X3pxFGf8gc7nBoMGhCD-27" value="" style="endArrow=classic;html=1;rounded=0;entryX=0.06;entryY=1.028;entryDx=0;entryDy=0;entryPerimeter=0;exitX=0.208;exitY=-0.024;exitDx=0;exitDy=0;exitPerimeter=0;" edge="1" parent="1" source="8X3pxFGf8gc7nBoMGhCD-10" target="EnnZCZ1k5EJQhtIXUkQg-1">
          <mxGeometry relative="1" as="geometry">
            <mxPoint x="377" y="180" as="sourcePoint" />
            <mxPoint x="448" y="159.99999999999997" as="targetPoint" />
          </mxGeometry>
        </mxCell>
        <mxCell id="8X3pxFGf8gc7nBoMGhCD-28" value="Ritardo/uscita" style="edgeLabel;resizable=0;html=1;align=center;verticalAlign=middle;" connectable="0" vertex="1" parent="8X3pxFGf8gc7nBoMGhCD-27">
          <mxGeometry relative="1" as="geometry">
            <mxPoint x="1" as="offset" />
          </mxGeometry>
        </mxCell>
        <mxCell id="8X3pxFGf8gc7nBoMGhCD-29" value="" style="endArrow=classic;html=1;rounded=0;exitX=0.208;exitY=-0.024;exitDx=0;exitDy=0;exitPerimeter=0;" edge="1" parent="1">
          <mxGeometry relative="1" as="geometry">
            <mxPoint x="458" y="130" as="sourcePoint" />
            <mxPoint x="458" y="190" as="targetPoint" />
          </mxGeometry>
        </mxCell>
        <mxCell id="8X3pxFGf8gc7nBoMGhCD-30" value="Ore lavorative" style="edgeLabel;resizable=0;html=1;align=center;verticalAlign=middle;" connectable="0" vertex="1" parent="8X3pxFGf8gc7nBoMGhCD-29">
          <mxGeometry relative="1" as="geometry">
            <mxPoint x="1" as="offset" />
          </mxGeometry>
        </mxCell>
        <mxCell id="8X3pxFGf8gc7nBoMGhCD-31" value="" style="endArrow=classic;html=1;rounded=0;entryX=1;entryY=0.5;entryDx=0;entryDy=0;exitX=1.004;exitY=0.127;exitDx=0;exitDy=0;exitPerimeter=0;" edge="1" parent="1" source="8X3pxFGf8gc7nBoMGhCD-10" target="zwUa3I3EudFriRIIw6sZ-4">
          <mxGeometry relative="1" as="geometry">
            <mxPoint x="528" y="140" as="sourcePoint" />
            <mxPoint x="529" y="196" as="targetPoint" />
            <Array as="points">
              <mxPoint x="528" y="204" />
              <mxPoint x="528" y="60" />
            </Array>
          </mxGeometry>
        </mxCell>
        <mxCell id="8X3pxFGf8gc7nBoMGhCD-32" value="Ferie calcolate" style="edgeLabel;resizable=0;html=1;align=center;verticalAlign=middle;" connectable="0" vertex="1" parent="8X3pxFGf8gc7nBoMGhCD-31">
          <mxGeometry relative="1" as="geometry">
            <mxPoint x="1" as="offset" />
          </mxGeometry>
        </mxCell>
        <mxCell id="8X3pxFGf8gc7nBoMGhCD-33" value="" style="endArrow=classic;html=1;rounded=0;" edge="1" parent="1">
          <mxGeometry relative="1" as="geometry">
            <mxPoint x="368" y="115" as="sourcePoint" />
            <mxPoint x="238" y="115" as="targetPoint" />
            <Array as="points">
              <mxPoint x="278" y="115" />
            </Array>
          </mxGeometry>
        </mxCell>
        <mxCell id="8X3pxFGf8gc7nBoMGhCD-34" value="Informazioni" style="edgeLabel;resizable=0;html=1;align=center;verticalAlign=middle;" connectable="0" vertex="1" parent="8X3pxFGf8gc7nBoMGhCD-33">
          <mxGeometry relative="1" as="geometry">
            <mxPoint x="-5" as="offset" />
          </mxGeometry>
        </mxCell>
        <mxCell id="8X3pxFGf8gc7nBoMGhCD-36" value="Process (1.4)" style="swimlane;fillColor=#E6E6E6;" vertex="1" parent="1">
          <mxGeometry x="95.5" y="520" width="140" height="110" as="geometry" />
        </mxCell>
        <mxCell id="8X3pxFGf8gc7nBoMGhCD-37" value="Calcolo stipendio" style="text;html=1;align=center;verticalAlign=middle;resizable=0;points=[];autosize=1;strokeColor=none;fillColor=none;" vertex="1" parent="8X3pxFGf8gc7nBoMGhCD-36">
          <mxGeometry x="17.5" y="50" width="110" height="30" as="geometry" />
        </mxCell>
        <mxCell id="8X3pxFGf8gc7nBoMGhCD-38" value="" style="endArrow=classic;html=1;rounded=0;exitX=0;exitY=0.75;exitDx=0;exitDy=0;entryX=0;entryY=0.5;entryDx=0;entryDy=0;" edge="1" parent="1" source="EnnZCZ1k5EJQhtIXUkQg-5" target="8X3pxFGf8gc7nBoMGhCD-36">
          <mxGeometry relative="1" as="geometry">
            <mxPoint x="38" y="260" as="sourcePoint" />
            <mxPoint x="38" y="580" as="targetPoint" />
            <Array as="points">
              <mxPoint x="48" y="280" />
              <mxPoint x="48" y="575" />
            </Array>
          </mxGeometry>
        </mxCell>
        <mxCell id="8X3pxFGf8gc7nBoMGhCD-39" value="Informazioni&lt;br&gt;sul calendario" style="edgeLabel;resizable=0;html=1;align=center;verticalAlign=middle;" connectable="0" vertex="1" parent="8X3pxFGf8gc7nBoMGhCD-38">
          <mxGeometry relative="1" as="geometry" />
        </mxCell>
        <mxCell id="8X3pxFGf8gc7nBoMGhCD-40" value="" style="endArrow=classic;html=1;rounded=0;exitX=1;exitY=0.5;exitDx=0;exitDy=0;entryX=0;entryY=0.5;entryDx=0;entryDy=0;" edge="1" parent="1" source="8X3pxFGf8gc7nBoMGhCD-36" target="8X3pxFGf8gc7nBoMGhCD-46">
          <mxGeometry relative="1" as="geometry">
            <mxPoint x="338" y="620" as="sourcePoint" />
            <mxPoint x="350" y="575" as="targetPoint" />
            <Array as="points" />
          </mxGeometry>
        </mxCell>
        <mxCell id="8X3pxFGf8gc7nBoMGhCD-41" value="Stipendio" style="edgeLabel;resizable=0;html=1;align=center;verticalAlign=middle;" connectable="0" vertex="1" parent="8X3pxFGf8gc7nBoMGhCD-40">
          <mxGeometry relative="1" as="geometry">
            <mxPoint x="-3" as="offset" />
          </mxGeometry>
        </mxCell>
        <mxCell id="8X3pxFGf8gc7nBoMGhCD-42" value="" style="endArrow=classic;html=1;rounded=0;" edge="1" parent="1">
          <mxGeometry relative="1" as="geometry">
            <mxPoint x="238" y="220" as="sourcePoint" />
            <mxPoint x="348" y="220" as="targetPoint" />
            <Array as="points">
              <mxPoint x="258" y="220" />
            </Array>
          </mxGeometry>
        </mxCell>
        <mxCell id="8X3pxFGf8gc7nBoMGhCD-43" value="Ferie/Permessi" style="edgeLabel;resizable=0;html=1;align=center;verticalAlign=middle;" connectable="0" vertex="1" parent="8X3pxFGf8gc7nBoMGhCD-42">
          <mxGeometry relative="1" as="geometry">
            <mxPoint x="-5" as="offset" />
          </mxGeometry>
        </mxCell>
        <mxCell id="8X3pxFGf8gc7nBoMGhCD-44" value="" style="endArrow=classic;html=1;rounded=0;exitX=0;exitY=0.5;exitDx=0;exitDy=0;entryX=-0.017;entryY=0.396;entryDx=0;entryDy=0;entryPerimeter=0;" edge="1" parent="1" source="EnnZCZ1k5EJQhtIXUkQg-2" target="EnnZCZ1k5EJQhtIXUkQg-5">
          <mxGeometry relative="1" as="geometry">
            <mxPoint x="80" y="-37.5" as="sourcePoint" />
            <mxPoint x="88" y="257.5" as="targetPoint" />
            <Array as="points">
              <mxPoint x="40" y="65" />
              <mxPoint x="40" y="230" />
            </Array>
          </mxGeometry>
        </mxCell>
        <mxCell id="8X3pxFGf8gc7nBoMGhCD-45" value="Informazioni&lt;br&gt;sul calendario" style="edgeLabel;resizable=0;html=1;align=center;verticalAlign=middle;" connectable="0" vertex="1" parent="8X3pxFGf8gc7nBoMGhCD-44">
          <mxGeometry relative="1" as="geometry" />
        </mxCell>
        <mxCell id="8X3pxFGf8gc7nBoMGhCD-46" value="Stipendi" style="html=1;dashed=0;whitespace=wrap;shape=partialRectangle;right=0;left=0;" vertex="1" parent="1">
          <mxGeometry x="339.25" y="560" width="130" height="30" as="geometry" />
        </mxCell>
        <mxCell id="8X3pxFGf8gc7nBoMGhCD-49" value="Process (1.5)" style="swimlane;fillColor=#E6E6E6;" vertex="1" parent="1">
          <mxGeometry x="580" y="520" width="140" height="110" as="geometry" />
        </mxCell>
        <mxCell id="8X3pxFGf8gc7nBoMGhCD-50" value="Retribuzione&lt;br&gt;dipendenti" style="text;html=1;align=center;verticalAlign=middle;resizable=0;points=[];autosize=1;strokeColor=none;fillColor=none;" vertex="1" parent="8X3pxFGf8gc7nBoMGhCD-49">
          <mxGeometry x="27.5" y="45" width="90" height="40" as="geometry" />
        </mxCell>
        <mxCell id="8X3pxFGf8gc7nBoMGhCD-51" value="" style="endArrow=classic;html=1;rounded=0;exitX=1;exitY=0.5;exitDx=0;exitDy=0;" edge="1" parent="1">
          <mxGeometry relative="1" as="geometry">
            <mxPoint x="466" y="574.66" as="sourcePoint" />
            <mxPoint x="580" y="574.66" as="targetPoint" />
            <Array as="points" />
          </mxGeometry>
        </mxCell>
        <mxCell id="8X3pxFGf8gc7nBoMGhCD-52" value="Stipendio" style="edgeLabel;resizable=0;html=1;align=center;verticalAlign=middle;" connectable="0" vertex="1" parent="8X3pxFGf8gc7nBoMGhCD-51">
          <mxGeometry relative="1" as="geometry">
            <mxPoint x="-3" as="offset" />
          </mxGeometry>
        </mxCell>
        <mxCell id="8X3pxFGf8gc7nBoMGhCD-53" value="" style="endArrow=classic;html=1;rounded=0;exitX=0.5;exitY=0;exitDx=0;exitDy=0;entryX=1;entryY=0.5;entryDx=0;entryDy=0;" edge="1" parent="1" source="8X3pxFGf8gc7nBoMGhCD-49" target="zwUa3I3EudFriRIIw6sZ-2">
          <mxGeometry relative="1" as="geometry">
            <mxPoint x="580" y="439.65999999999997" as="sourcePoint" />
            <mxPoint x="694" y="439.65999999999997" as="targetPoint" />
            <Array as="points">
              <mxPoint x="650" y="440" />
            </Array>
          </mxGeometry>
        </mxCell>
        <mxCell id="8X3pxFGf8gc7nBoMGhCD-54" value="Stipendio" style="edgeLabel;resizable=0;html=1;align=center;verticalAlign=middle;" connectable="0" vertex="1" parent="8X3pxFGf8gc7nBoMGhCD-53">
          <mxGeometry relative="1" as="geometry">
            <mxPoint x="-32" as="offset" />
          </mxGeometry>
        </mxCell>
      </root>
    </mxGraphModel>
  </diagram>
</mxfile>
